<svg width="18" height="8" viewBox="0 0 18 8" fill="none" xmlns="http://www.w3.org/2000/svg">
<path fill-rule="evenodd" clip-rule="evenodd" d="M17.7179 0.0874661C17.9989 0.255762 18.0844 0.610463 17.9087 0.879728C17.3819 1.68748 16.7558 2.42227 16.0442 3.06229L17.4854 4.4433C17.7197 4.66781 17.7197 5.03186 17.4854 5.25643C17.2511 5.48089 16.8712 5.48089 16.6369 5.25643L15.1213 3.8041C14.1659 4.48788 13.0907 5.016 11.9205 5.34819L12.4596 7.27607C12.5453 7.58286 12.3553 7.89804 12.0353 7.98025C11.7152 8.06247 11.3862 7.88045 11.3004 7.57366L10.751 5.60864C10.1849 5.7012 9.60042 5.74938 9 5.74938C8.39957 5.74938 7.81509 5.7012 7.24899 5.60864L6.69959 7.57366C6.61384 7.88045 6.28485 8.06247 5.96476 7.98025C5.64468 7.89804 5.45472 7.58286 5.54047 7.27619L6.07949 5.34819C4.90933 5.016 3.83404 4.48787 2.87868 3.80407L1.36308 5.25632C1.12877 5.48089 0.74887 5.48089 0.514557 5.25632C0.280245 5.03186 0.280245 4.66781 0.514557 4.44329L1.95578 3.06227C1.24418 2.42226 0.618136 1.68748 0.0912813 0.879728C-0.0843441 0.610463 0.00107828 0.255762 0.282077 0.0874661C0.563076 -0.0808179 0.933244 0.00103 1.10887 0.270296C1.68425 1.15244 2.3868 1.93256 3.1948 2.57895C3.20778 2.58845 3.22044 2.59851 3.23276 2.60916C4.81077 3.85827 6.78643 4.59951 9 4.59951C12.3694 4.59951 15.1876 2.88205 16.8911 0.270296C17.0668 0.00103 17.437 -0.0808179 17.7179 0.0874661Z" fill="#383838"/>
</svg>
