<svg width="26" height="38" viewBox="0 0 26 38" fill="none" xmlns="http://www.w3.org/2000/svg">
<g clip-path="url(#clip0_735_11943)">
<path d="M16.9622 5.15445C18.3878 5.15445 19.5434 3.99884 19.5434 2.57332C19.5434 1.1478 18.3878 -0.0078125 16.9622 -0.0078125C15.5367 -0.0078125 14.3811 1.1478 14.3811 2.57332C14.3811 3.99884 15.5367 5.15445 16.9622 5.15445Z" fill="#DE00FC"/>
<path d="M23.8965 4.05859C23.0361 4.05859 22.3396 4.75509 22.3396 5.61547C22.3396 6.47584 23.0361 7.17234 23.8965 7.17234C24.7569 7.17234 25.4533 6.47584 25.4533 5.61547C25.4533 4.75509 24.7569 4.05859 23.8965 4.05859Z" fill="#DE00FC"/>
<path d="M18.3604 7.05078C16.9623 7.05078 15.7331 7.77288 15.0213 8.8586C11.4261 6.33892 6.52506 6.8152 3.48301 9.98528C0.415351 13.181 0.159287 18.1384 2.88382 21.6311C1.13745 23.2033 0.538262 25.6872 1.37815 27.8791C2.21805 30.071 4.3229 31.5203 6.67357 31.5203H13.1623C13.5873 31.5203 13.9356 31.8686 13.9356 32.2936C13.9356 32.7187 13.5873 33.067 13.1623 33.067H7.46737V37.968H13.1623C16.2965 37.968 18.8315 35.4279 18.8315 32.2988C18.8315 29.1696 16.2914 26.6295 13.1623 26.6295H6.67357C6.24851 26.6295 5.90026 26.2812 5.90026 25.8562C5.90026 25.4311 6.24851 25.0829 6.67357 25.0829H9.91535C12.2814 25.0829 14.545 24.1457 16.2197 22.471C17.8943 20.7963 18.8315 18.5327 18.8315 16.1667V14.9888C20.8083 14.7583 22.3396 13.0734 22.3396 11.0351C22.3396 8.83299 20.5574 7.05078 18.3604 7.05078ZM12.7577 19.0039C11.6105 20.1511 9.88463 20.4942 8.38409 19.8745C6.88355 19.2548 5.90538 17.7901 5.90538 16.1667C5.9105 13.9492 7.70295 12.1516 9.92047 12.1516C11.5439 12.1516 13.0086 13.1298 13.6283 14.6303C14.248 16.1257 13.9048 17.8516 12.7577 19.0039Z" fill="#383838"/>
</g>
<defs>
<clipPath id="clip0_735_11943">
<rect width="24.4286" height="38" fill="white" transform="translate(0.714355)"/>
</clipPath>
</defs>
</svg>
